<?xml version="1.0" encoding="UTF-8" standalone="no"?>
<!-- Created with Inkscape (http://www.inkscape.org/) -->

<svg
   xmlns:dc="http://purl.org/dc/elements/1.1/"
   xmlns:cc="http://creativecommons.org/ns#"
   xmlns:rdf="http://www.w3.org/1999/02/22-rdf-syntax-ns#"
   xmlns:svg="http://www.w3.org/2000/svg"
   xmlns="http://www.w3.org/2000/svg"
   xmlns:sodipodi="http://sodipodi.sourceforge.net/DTD/sodipodi-0.dtd"
   xmlns:inkscape="http://www.inkscape.org/namespaces/inkscape"
   height="172.75443mm"
   width="172.72mm"
   viewBox="0 0 612 612.12198"
   id="svg13529"
   version="1.1"
   inkscape:version="0.91 r13725"
   sodipodi:docname="emacside-solid.svg">
  <defs
     id="defs13535" />
  <sodipodi:namedview
     pagecolor="#ffffff"
     bordercolor="#666666"
     borderopacity="1"
     objecttolerance="10"
     gridtolerance="10"
     guidetolerance="10"
     inkscape:pageopacity="0"
     inkscape:pageshadow="2"
     inkscape:window-width="640"
     inkscape:window-height="480"
     id="namedview13533"
     showgrid="false"
     fit-margin-top="0"
     fit-margin-left="0"
     fit-margin-right="0"
     fit-margin-bottom="0"
     inkscape:zoom="0.22425739"
     inkscape:cx="1034.7802"
     inkscape:cy="-202.28345"
     inkscape:window-x="0"
     inkscape:window-y="25"
     inkscape:window-maximized="0"
     inkscape:current-layer="svg13529" />
  <metadata
     id="metadata13531">
    <rdf:RDF>
      <cc:Work
         rdf:about="">
        <dc:format>image/svg+xml</dc:format>
        <dc:type
           rdf:resource="http://purl.org/dc/dcmitype/StillImage" />
        <dc:title></dc:title>
      </cc:Work>
    </rdf:RDF>
  </metadata>
  <g
     id="g3211"
     transform="translate(-113.16125,-358.41513)">
    <path
       style="fill:#fdfdfd"
       d="m 113.16125,664.41513 0,-306 306,0 306,0 0,306 0,306 -306,0 -306,0 0,-306 z"
       id="path3227"
       inkscape:connector-curvature="0" />
    <path
       style="fill:#b2cfb4"
       d="m 195.16125,969.24133 c -3.575,-0.49246 -9.65,-1.83603 -13.5,-2.98572 -19.37775,-5.78659 -39.77091,-21.3566 -52.18196,-39.84048 -9.71303,-14.46569 -13.45927,-24.3752 -15.31084,-40.5 -1.59357,-13.87795 -0.84914,-440.92756 0.78569,-450.71698 3.46972,-20.7768 21.44028,-46.52104 42.20711,-60.46498 14.46569,-9.71303 24.3752,-13.45927 40.5,-15.31084 13.87795,-1.59357 440.92756,-0.84914 450.71697,0.78569 9.52652,1.59092 20.64913,6.519 32.26113,14.29388 12.077,8.08623 21.18274,17.29477 29.2494,29.57962 7.85584,11.96378 12.04781,22.19766 13.5618,33.10849 1.74814,12.59825 1.74814,441.85199 0,454.45023 -3.06987,22.12354 -20.45079,47.79333 -42.2893,62.45685 -13.9353,9.35689 -24.01864,13.28644 -39.0519,15.21879 -10.59305,1.36162 -437.03857,1.29048 -446.9481,-0.0746 z m 368.5,-142.8262 0,-38.5 -92.5,-0.5 -92.5,-0.5 0,-47.5 0,-47.5 84,-0.5 84,-0.5 0,-38.5 0,-38.5 -84,-0.5 -84,-0.5 0,-38.5 0,-38.5 89.5,-0.5 89.5,-0.5 0,-38.5 0,-38.5 -141.5,0 -141.5,0 -0.25645,202.5 c -0.14105,111.375 -0.0421,203.06402 0.21991,203.75338 0.37936,0.99813 29.85843,1.20178 144.75645,1 l 144.28009,-0.25338 0,-38.5 z"
       id="path3225"
       inkscape:connector-curvature="0" />
    <path
       style="fill:#86b389"
       d="m 195.16125,968.91882 c -12.39438,-2.49485 -25.27473,-7.79899 -36.78153,-15.14666 -7.31901,-4.67356 -21.41441,-18.43438 -26.93986,-26.30039 -5.90535,-8.40684 -12.69114,-22.68425 -15.54288,-32.70246 l -2.23573,-7.85418 -0.30456,-218 c -0.22375,-160.15341 -5.6e-4,-219.99014 0.84111,-225.5 6.39284,-41.84958 41.97866,-77.40747 84.01597,-83.95003 5.52293,-0.85957 63.78223,-1.08039 225.44748,-0.85453 l 218,0.30456 8,2.29022 c 17.90696,5.12636 33.90768,14.74176 46.81897,28.13517 12.97826,13.46289 21.09103,27.60332 25.86058,45.07461 l 2.32045,8.5 0,221.5 0,221.5 -2.2559,8.5 c -4.72458,17.80173 -14.49349,34.13038 -28.47631,47.59789 -14.1967,13.67351 -31.0208,22.75301 -49.05805,26.47527 -8.89105,1.8348 -16.71868,1.89777 -226.20974,1.81974 -174.53164,-0.065 -218.27209,-0.33689 -223.5,-1.38921 z m 369.5,-142.50369 0,-39.5 -92.5,-0.5 -92.5,-0.5 0,-46.5 0,-46.5 84,-0.5 84,-0.5 0,-39.5 0,-39.5 -84,-0.5 -84,-0.5 0,-37.5 0,-37.5 89.5,-0.5 89.5,-0.5 0,-39.5 0,-39.5 -142.5,0 -142.5,0 -0.25644,203.5 c -0.14105,111.925 -0.0421,204.06401 0.2199,204.75336 0.37935,0.99815 30.05839,1.20177 145.75644,1 l 145.2801,-0.25336 0,-39.5 z"
       id="path3223"
       inkscape:connector-curvature="0" />
    <path
       style="fill:#73a776"
       d="m 199.66125,969.76741 c -29.51803,-6.13563 -52.1036,-20.26878 -67.68137,-42.35228 -8.47143,-12.00936 -15.52268,-28.73531 -17.83485,-42.30528 -0.72484,-4.25398 -0.96366,-74.64845 -0.76233,-224.69472 l 0.29318,-218.5 2.33678,-7.5 c 5.08155,-16.30951 14.43863,-32.85767 25.11184,-44.41075 13.22294,-14.31301 37.37359,-27.20307 57.34203,-30.60547 4.25398,-0.72484 74.64845,-0.96366 224.69472,-0.76233 l 218.5,0.29318 7.5,2.33678 c 17.00898,5.29949 33.29145,14.6695 45.35531,26.10046 11.53358,10.9285 22.65325,29.94449 27.80395,47.54813 l 2.34074,8 0,221 0,221 -2.33771,8.5 c -4.44186,16.15076 -13.92046,33.28196 -25.12554,45.41075 -9.6323,10.42638 -26.92332,21.34458 -42.03675,26.5436 -15.31513,5.26842 -3.27334,5.0183 -236.5,4.91229 -119.35,-0.0543 -217.9,-0.28572 -219,-0.51436 z m 365.5,-143.35228 0,-40 -91.8,0 c -70.06667,0 -92.0841,-0.2841 -93,-1.2 -1.72682,-1.72682 -1.72682,-89.87318 0,-91.6 0.91413,-0.91413 21.04444,-1.2 84.5,-1.2 l 83.3,0 0,-40 0,-40 -83.3,0 c -63.45556,0 -83.58587,-0.28587 -84.5,-1.2 -1.72047,-1.72047 -1.72047,-71.87953 0,-73.6 0.91532,-0.91532 22.26667,-1.2 90,-1.2 l 88.8,0 0,-40 0,-40 -143,0 -143,0 0,205 0,205 146,0 146,0 0,-40 z"
       id="path3221"
       inkscape:connector-curvature="0" />
    <path
       style="fill:#428a47"
       d="m 198.41125,969.6983 c -1.7875,-0.22544 -3.25,-0.78129 -3.25,-1.23524 0,-0.45394 -1.6875,-1.14099 -3.75,-1.52678 -26.26082,-4.91203 -53.8585,-26.75347 -66.99472,-53.02115 -3.315,-6.62882 -8.25528,-20.71032 -8.25528,-23.53044 0,-0.99159 -0.5625,-1.99039 -1.25,-2.21956 -1.62636,-0.54212 -1.86004,-446.39428 -0.23457,-447.53648 0.55849,-0.39243 1.83196,-3.86352 2.82994,-7.71352 6.73834,-25.99516 27.1402,-50.73524 52.15463,-63.24472 6.62881,-3.315 20.71032,-8.25528 23.53043,-8.25528 0.9916,0 1.9904,-0.5625 2.21957,-1.25 0.54212,-1.62636 446.39428,-1.86004 447.53647,-0.23457 0.39244,0.55849 3.86353,1.83196 7.71353,2.82994 32.52179,8.43014 61.72449,37.63284 70.15463,70.15463 0.99798,3.85 2.27145,7.32109 2.82994,7.71352 1.47744,1.03818 1.40737,446.60187 -0.0704,447.57295 -0.5972,0.39244 -1.86696,3.86353 -2.82168,7.71353 -6.3438,25.58178 -27.05046,50.72143 -52.09251,63.24472 -6.62882,3.315 -20.71032,8.25528 -23.53044,8.25528 -0.99159,0 -1.99037,0.5625 -2.21952,1.25 -0.33148,0.99457 -45.4576,1.26973 -220.83333,1.34653 -121.22917,0.0531 -221.87919,-0.0879 -223.66669,-0.31336 z m 366.55,-103.48317 c 1.72291,-1.72291 1.72291,-77.87709 0,-79.6 -0.9159,-0.9159 -22.93333,-1.2 -93,-1.2 l -91.8,0 0,-46 0,-46 83.3,0 c 63.45556,0 83.58587,-0.28587 84.5,-1.2 1.72291,-1.72291 1.72291,-77.87709 0,-79.6 -0.91413,-0.91413 -21.04444,-1.2 -84.5,-1.2 l -83.3,0 0,-37 0,-37 89.39301,0 c 80.59225,0 89.45277,-0.15573 90,-1.58179 0.33385,-0.86998 0.60699,-18.77998 0.60699,-39.8 0,-28.39194 -0.30853,-38.52674 -1.2,-39.41821 -1.74398,-1.74398 -283.85602,-1.74398 -285.6,0 -1.74638,1.74638 -1.74638,407.85362 0,409.6 1.74415,1.74415 289.85585,1.74415 291.6,0 z"
       id="path3219"
       inkscape:connector-curvature="0" />
    <path
       style="fill:#36813a"
       d="m 198.16125,969.41513 -3.5,-0.73672 3,-0.21114 c 2.18952,-0.1541 1.27447,-0.58549 -3.38702,-1.59678 -39.06045,-8.47405 -69.71536,-39.07529 -77.59121,-77.45536 -0.94182,-4.58962 -1.39525,-5.61829 -1.5428,-3.5 -0.19312,2.77254 -0.2717,2.69672 -1.03634,-1 -1.08125,-5.22739 -1.08125,-435.77261 0,-441 0.76464,-3.69672 0.84322,-3.77254 1.03634,-1 0.14661,2.1048 0.60113,1.06041 1.5232,-3.5 7.68869,-38.02698 39.31194,-69.64223 77.49783,-77.47823 4.58962,-0.94182 5.61828,-1.39525 3.5,-1.5428 -2.77254,-0.19312 -2.69672,-0.2717 1,-1.03634 5.22739,-1.08125 435.77261,-1.08125 441,0 3.69672,0.76464 3.77254,0.84322 1,1.03634 -2.1048,0.14661 -1.06041,0.60113 3.5,1.5232 38.00926,7.68511 69.81272,39.48857 77.49783,77.49783 0.92207,4.56041 1.37659,5.6048 1.5232,3.5 0.19312,-2.77254 0.2717,-2.69672 1.03634,1 1.08125,5.22739 1.08125,435.77261 0,441 -0.76108,3.67951 -0.84296,3.75963 -1.02187,1 -0.13837,-2.13418 -0.59804,-1.12407 -1.59276,3.5 -2.85131,13.25475 -7.77484,24.6577 -15.75985,36.5 -13.57093,20.12659 -37.48298,36.01225 -61.68289,40.97823 -4.58962,0.94182 -5.61829,1.39525 -3.5,1.5428 2.77254,0.19312 2.69672,0.2717 -1,1.03634 -4.93843,1.02148 -436.6411,0.96538 -441.5,-0.0574 z M 565.58982,866.8437 c 1.37465,-1.37465 1.57143,-6.43723 1.57143,-40.42857 0,-33.99134 -0.19678,-39.05392 -1.57143,-40.42857 -1.40565,-1.40566 -11.21645,-1.57143 -93,-1.57143 l -91.42857,0 0,-45 0,-45 82.92857,0 c 74.05628,0 83.0967,-0.16812 84.5,-1.57143 1.37465,-1.37465 1.57143,-6.43723 1.57143,-40.42857 0,-33.99134 -0.19678,-39.05392 -1.57143,-40.42857 -1.4033,-1.40331 -10.44372,-1.57143 -84.5,-1.57143 l -82.92857,0 0,-36 0,-36 88.42857,0 c 79.05628,0 88.59512,-0.16655 90,-1.57143 1.37465,-1.37465 1.57143,-6.43723 1.57143,-40.42857 0,-33.99134 -0.19678,-39.05392 -1.57143,-40.42857 -1.4138,-1.4138 -15.80086,-1.57143 -143.42857,-1.57143 -127.62771,0 -142.01477,0.15763 -143.42857,1.57143 -1.41829,1.41829 -1.57143,21.43723 -1.57143,205.42857 0,183.99134 0.15314,204.01028 1.57143,205.42857 1.41411,1.41411 16.07359,1.57143 146.42857,1.57143 130.35498,0 145.01446,-0.15732 146.42857,-1.57143 z"
       id="path3217"
       inkscape:connector-curvature="0" />
    <path
       style="fill:#2b7b30"
       d="m 201.44343,969.12216 c 0.34821,-0.90743 -1.41588,-1.65568 -5.91608,-2.50936 -29.45768,-5.58807 -56.35309,-26.18719 -70.11082,-53.69767 -3.87082,-7.74024 -8.00848,-20.15883 -8.86311,-26.60134 -0.36949,-2.78533 -0.99626,-4.53926 -1.39282,-3.89761 -0.50228,0.8127 -0.91493,0.66132 -1.36019,-0.49899 -0.91405,-2.38198 -0.55815,-434.39049 0.36084,-438.00206 l 0.76337,-3 0.21228,3.5 c 0.1755,2.89357 0.43818,2.37376 1.51602,-3 7.16778,-35.73614 32.86084,-64.67557 67.77687,-76.34065 4.2727,-1.42746 10.1227,-2.93553 13,-3.35127 l 5.23146,-0.75589 -4,-0.58019 c -3.82076,-0.55419 -3.70873,-0.61343 2.5,-1.32186 3.575,-0.40792 103.025,-0.60857 221,-0.4459 170.94066,0.2357 214.44923,0.5496 214.25,1.54576 -0.14232,0.71161 0.74567,1.25 2.06166,1.25 4.44807,0 18.25958,4.18231 26.4158,7.99905 21.89005,10.24357 39.04808,27.42168 49.32439,49.38212 3.70805,7.92409 7.81615,21.42685 8.07979,26.55717 0.10596,2.06198 0.26507,1.87895 0.81568,-0.93834 0.66541,-3.40471 0.70383,-3.35026 1.41118,2 0.39993,3.025 0.59538,102.25 0.43433,220.5 -0.23337,171.34191 -0.54666,214.94923 -1.54283,214.75 -0.6875,-0.1375 -1.25,0.68752 -1.25,1.83339 0,4.36493 -4.30924,18.74595 -7.95129,26.53544 -9.75198,20.8572 -26.36331,38.03136 -46.54871,48.12589 -7.71384,3.85761 -20.15253,8.00765 -26.54099,8.85511 -2.75214,0.36508 -5.28833,1.124 -5.63596,1.68649 -0.38916,0.62967 -0.12901,0.71179 0.67695,0.21368 0.86617,-0.53532 1.06763,-0.41844 0.59549,0.34549 -1.10726,1.79159 -436.00086,1.65326 -435.31331,-0.13846 z m 365.21782,-142.70703 0,-41.5 -92.75,-0.25518 -92.75,-0.25518 0,-44.98914 0,-44.98914 84.25,-0.25568 84.25,-0.25568 0,-41.5 0,-41.5 -84.25,-0.25568 -84.25,-0.25568 0,-35.98897 0,-35.98898 89.75,-0.25534 89.75,-0.25535 0,-41.5 0,-41.5 -144.5,0 -144.5,0 -0.25643,205.5 c -0.14104,113.025 -0.0421,206.06399 0.21989,206.75331 0.37935,0.99818 30.45831,1.20175 147.75643,1 l 147.28011,-0.25331 0,-41.5 z m -368.6875,142.31689 c 0.72187,-0.28887 1.58437,-0.25335 1.91667,0.0789 0.33229,0.33229 -0.25834,0.56864 -1.3125,0.52522 -1.16495,-0.048 -1.4019,-0.28494 -0.60417,-0.60416 z m -83.65461,-82.31689 c 0,-1.375 0.22698,-1.9375 0.50439,-1.25 0.27741,0.6875 0.27741,1.8125 0,2.5 -0.27741,0.6875 -0.50439,0.125 -0.50439,-1.25 z"
       id="path3215"
       inkscape:connector-curvature="0" />
    <path
       style="fill:#2a7b2e"
       d="m 633.59856,969.64448 c 0.34132,-0.34131 1.32379,-0.72378 2.18327,-0.84993 0.85947,-0.12614 1.28342,0.0499 0.94211,0.39123 -0.34132,0.34131 -1.32379,0.72378 -2.18327,0.84993 -0.85947,0.12614 -1.28342,-0.0499 -0.94211,-0.39123 z m -443.62481,-4.91246 c 0.72187,-0.28887 1.58437,-0.25335 1.91667,0.0789 0.33229,0.33229 -0.25834,0.56864 -1.3125,0.52522 -1.16495,-0.048 -1.4019,-0.28494 -0.60417,-0.60416 z m 461.6875,-1.31689 c 0.33992,-0.55 0.81648,-1 1.05902,-1 0.24254,0 0.44098,0.45 0.44098,1 0,0.55 -0.47656,1 -1.05902,1 -0.58246,0 -0.7809,-0.45 -0.44098,-1 z m -471.5,-6 c 0.825,-0.53316 2.625,-0.96937 4,-0.96937 1.97894,0 2.18736,0.20204 1,0.96937 -0.825,0.53316 -2.625,0.96937 -4,0.96937 -1.97894,0 -2.18736,-0.20204 -1,-0.96937 z m 479.75,-0.66228 c 0.6875,-0.27741 1.8125,-0.27741 2.5,0 0.6875,0.27741 0.125,0.50439 -1.25,0.50439 -1.375,0 -1.9375,-0.22698 -1.25,-0.50439 z m -494.75,-3.33772 c 0,-0.55 0.45,-1 1,-1 0.55,0 1,0.45 1,1 0,0.55 -0.45,1 -1,1 -0.55,0 -1,-0.45 -1,-1 z m 509.625,-0.79775 c -0.27117,-0.43876 -0.0796,-1.45126 0.42567,-2.25 0.71729,-1.13385 0.92206,-0.95896 0.93402,0.79775 0.0157,2.31303 -0.49232,2.85568 -1.35969,1.45225 z M 161.7442,950.54934 c -0.43077,-0.697 -0.51316,-1.53733 -0.18309,-1.86741 0.89496,-0.89496 1.87077,0.4213 1.38739,1.87145 -0.33872,1.01617 -0.57427,1.01538 -1.2043,-0.004 z m 6.41705,-0.63421 c -1.04007,-1.2532 -0.89568,-1.5 0.87755,-1.5 1.21996,0 2.12245,0.63782 2.12245,1.5 0,0.825 -0.3949,1.5 -0.87756,1.5 -0.48265,0 -1.43775,-0.675 -2.12244,-1.5 z m 511.5573,-1.91824 c 2.09456,-1.53158 3.04375,-1.3633 1.98382,0.35171 -0.36254,0.58659 -1.3936,1.06653 -2.29127,1.06653 -1.36496,0 -1.31464,-0.23214 0.30745,-1.41824 z m 4.08107,-2.08176 c 0.31659,-0.825 1.03256,-1.5 1.59106,-1.5 0.58531,0 0.48812,0.63541 -0.22943,1.5 -0.68469,0.825 -1.40067,1.5 -1.59106,1.5 -0.19039,0 -0.0872,-0.675 0.22943,-1.5 z m 3.36163,-7.03518 c 0,-1.22531 0.4037,-1.31913 2,-0.46482 1.1,0.5887 2,1.27953 2,1.53518 0,0.25565 -0.9,0.46482 -2,0.46482 -1.13148,0 -2,-0.66667 -2,-1.53518 z M 143.73628,934.3557 c -1.05873,-1.06731 -1.59164,-1.94057 -1.18425,-1.94057 1.44367,0 4.60922,2.08452 4.60922,3.03518 0,1.46897 -1.2914,1.05624 -3.42497,-1.09461 z m 549.62497,0.85943 c -1.63321,-1.63321 -1.50819,-2.8 0.3,-2.8 0.83333,0 1.5,0.88889 1.5,2 0,2.33102 -0.18621,2.41379 -1.8,0.8 z m 9.53121,-9.88016 c 0.35361,-1.3522 0.8069,-1.8055 1.05655,-1.05655 0.24048,0.72144 -0.0382,1.78716 -0.61931,2.36826 -0.74207,0.74207 -0.87221,0.35164 -0.43724,-1.31171 z m -565.73121,-2.86082 c 0,-1.13246 0.45,-2.05902 1,-2.05902 0.55,0 1,0.64844 1,1.44098 0,0.79254 -0.45,1.7191 -1,2.05902 -0.55,0.33992 -1,-0.30852 -1,-1.44098 z m -5.97994,-0.53485 c -0.78875,-0.95039 -0.86462,-1.52417 -0.20152,-1.52417 1.20855,0 2.61759,1.8972 1.9241,2.5907 -0.2517,0.2517 -1.02686,-0.22824 -1.72258,-1.06653 z m 575.47994,-1.52417 c -0.33992,-0.55 -0.14148,-1 0.44098,-1 0.58246,0 1.05902,0.45 1.05902,1 0,0.55 -0.19844,1 -0.44098,1 -0.24254,0 -0.7191,-0.45 -1.05902,-1 z m 6.5,-12.44098 c 0,-0.85746 0.45,-1.55902 1,-1.55902 0.55,0 1,0.42344 1,0.94098 0,0.51754 -0.45,1.2191 -1,1.55902 -0.55,0.33992 -1,-0.0835 -1,-0.94098 z m -2,-9.55902 c 0,-0.55 0.45,-1 1,-1 0.55,0 1,0.45 1,1 0,0.55 -0.45,1 -1,1 -0.55,0 -1,-0.45 -1,-1 z m 6,0 c 0,-0.55 0.47656,-1 1.05902,-1 0.58246,0 0.7809,0.45 0.44098,1 -0.33992,0.55 -0.81648,1 -1.05902,1 -0.24254,0 -0.44098,-0.45 -0.44098,-1 z m 2.07895,-6.58333 c 0.048,-1.16495 0.28494,-1.4019 0.60416,-0.60417 0.28887,0.72187 0.25335,1.58438 -0.0789,1.91667 -0.33229,0.33229 -0.56864,-0.25834 -0.52522,-1.3125 z M 113.51713,880.18193 c -0.30588,-0.49492 -0.28609,-1.16992 0.044,-1.5 0.33008,-0.33007 0.60014,-0.0893 0.60014,0.53515 0,0.6244 0.675,0.87626 1.5,0.55968 0.825,-0.31659 1.5,-0.15246 1.5,0.36471 0,1.1998 -2.90766,1.23208 -3.64412,0.0405 z m 7.95854,-0.5168 c -0.34254,-0.9625 -0.80179,-2.08235 -1.02055,-2.48855 -0.21876,-0.4062 0.30063,-0.47055 1.15419,-0.14301 0.85357,0.32755 1.55194,1.44739 1.55194,2.48855 0,2.37336 -0.86568,2.4468 -1.68558,0.14301 z m 441.49808,-7.93311 c 0.72187,-0.28887 1.58438,-0.25335 1.91667,0.0789 0.33229,0.33229 -0.25834,0.56864 -1.3125,0.52522 -1.16495,-0.048 -1.4019,-0.28494 -0.60417,-0.60416 z m 5.43415,-0.56689 c 0.89591,-0.6875 1.81449,-2.6 2.0413,-4.25 0.3236,-2.35412 0.44464,-2.08501 0.56222,1.25 0.13229,3.75249 -0.10666,4.25 -2.0413,4.25 -1.95499,0 -2.01558,-0.13471 -0.56222,-1.25 z m -0.79709,-44.75 c 0,-18.975 0.13447,-26.7375 0.29883,-17.25 0.16436,9.4875 0.16436,25.0125 0,34.5 -0.16436,9.4875 -0.29883,1.725 -0.29883,-17.25 z m 2.55044,-40.95031 c 0,-1.75485 -0.70909,-3.36332 -1.75,-3.96959 -1.56287,-0.91029 -1.5094,-1.02253 0.5,-1.04969 1.9634,-0.0265 2.25,0.4791 2.25,3.96959 0,2.2 -0.225,4 -0.5,4 -0.275,0 -0.5,-1.32764 -0.5,-2.95031 z m -7.1875,-4.7328 c 0.72187,-0.28887 1.58438,-0.25335 1.91667,0.0789 0.33229,0.33229 -0.25834,0.56864 -1.3125,0.52522 -1.16495,-0.048 -1.4019,-0.28494 -0.60417,-0.60416 z m -16.12451,-85.03566 c 1.91741,-0.2398 3.36574,-1.07275 3.634,-2.08996 0.31691,-1.20173 0.47958,-1.04 0.56201,0.55873 0.10209,1.98016 -0.33373,2.23081 -3.634,2.08996 -3.60277,-0.15375 -3.62484,-0.17569 -0.56201,-0.55873 z m 6.95038,-8.78123 c -0.31658,-0.825 -0.13972,-1.5 0.39301,-1.5 0.53274,0 0.96862,0.675 0.96862,1.5 0,0.825 -0.17686,1.5 -0.39301,1.5 -0.21616,0 -0.65203,-0.675 -0.96862,-1.5 z m -2.63837,-78.55902 c 0,-0.58246 0.45,-0.7809 1,-0.44098 0.55,0.33992 1,0.81648 1,1.05902 0,0.24254 -0.45,0.44098 -1,0.44098 -0.55,0 -1,-0.47656 -1,-1.05902 z m 2,-65.44098 c 0,-0.825 0.40186,-1.5 0.89301,-1.5 0.49116,0 1.15203,0.675 1.46862,1.5 0.35062,0.91371 0.002,1.5 -0.89301,1.5 -0.80774,0 -1.46862,-0.675 -1.46862,-1.5 z m 4,-2.12244 c 0,-1.3288 0.27149,-1.39713 1.5,-0.37756 0.825,0.68469 1.5,1.41479 1.5,1.62244 0,0.20766 -0.675,0.37756 -1.5,0.37756 -0.825,0 -1.5,-0.7301 -1.5,-1.62244 z m 4.01531,-3.12756 c 0.008,-0.9625 0.45153,-2.425 0.98469,-3.25 0.7356,-1.13826 0.97307,-0.71622 0.98469,1.75 0.008,1.7875 -0.43469,3.25 -0.98469,3.25 -0.55,0 -0.99311,-0.7875 -0.98469,-1.75 z m -0.0153,-76.19098 c 0,-1.13246 0.45,-2.05902 1,-2.05902 0.55,0 1,0.64844 1,1.44098 0,0.79254 -0.45,1.7191 -1,2.05902 -0.55,0.33992 -1,-0.30852 -1,-1.44098 z m -8,-8.05902 c 0,-0.55 0.675,-1 1.5,-1 0.825,0 1.5,0.45 1.5,1 0,0.55 -0.675,1 -1.5,1 -0.825,0 -1.5,-0.45 -1.5,-1 z M 723.2402,444.8318 c 0.048,-1.16495 0.28494,-1.4019 0.60416,-0.60417 0.28887,0.72187 0.25335,1.58437 -0.0789,1.91667 -0.33229,0.33229 -0.56864,-0.25834 -0.52522,-1.3125 z m -609,-1 c 0.048,-1.16495 0.28494,-1.4019 0.60416,-0.60417 0.28887,0.72187 0.25335,1.58437 -0.0789,1.91667 -0.33229,0.33229 -0.56864,-0.25834 -0.52522,-1.3125 z m 2.07105,-0.36667 c 0.42971,-1.28914 1.80131,-1.5207 1.925,-0.325 0.0413,0.39875 -0.465,0.905 -1.125,1.125 -0.66,0.22 -1.02,-0.14 -0.8,-0.8 z m 604.1,0.22976 c -1.41971,-0.50704 -1.72151,-3.27976 -0.35699,-3.27976 0.8417,0 2.46859,3.03333 1.88053,3.50622 -0.15045,0.12098 -0.83604,0.0191 -1.52354,-0.22646 z M 122.3562,431.91513 c 0.0204,-1.65 0.2445,-2.20394 0.49804,-1.23097 0.25354,0.97297 0.23687,2.32297 -0.0371,3 -0.27393,0.67703 -0.48137,-0.11903 -0.46099,-1.76903 z m -3.19495,-0.5 c 0,-0.55 0.45,-1 1,-1 0.55,0 1,0.45 1,1 0,0.55 -0.45,1 -1,1 -0.55,0 -1,-0.45 -1,-1 z m 592.03041,-3.55 c 0.0267,-2.58611 0.16279,-2.72225 1.10362,-1.10363 0.76916,1.32327 0.76054,2.15906 -0.0304,2.95 -0.80483,0.80484 -1.09539,0.30496 -1.07321,-1.84637 z m -590.03041,-1.39098 c 0,-0.51754 0.44485,-1.21592 0.98855,-1.55194 0.56686,-0.35034 0.7345,0.0511 0.39301,0.94098 -0.66479,1.73242 -1.38156,2.04939 -1.38156,0.61096 z m 7,-3.55902 c 0,-0.825 0.675,-1.5 1.5,-1.5 0.825,0 1.5,0.675 1.5,1.5 0,0.825 -0.675,1.5 -1.5,1.5 -0.825,0 -1.5,-0.675 -1.5,-1.5 z m 2.07895,-6.08333 c 0.048,-1.16495 0.28494,-1.4019 0.60416,-0.60417 0.28887,0.72187 0.25335,1.58437 -0.0789,1.91667 -0.33229,0.33229 -0.56864,-0.25834 -0.52522,-1.3125 z m 572.92105,-2.41667 c 0,-1.1 0.20917,-2 0.46482,-2 0.25565,0 0.94648,0.9 1.53518,2 0.85431,1.5963 0.76049,2 -0.46482,2 -0.86851,0 -1.53518,-0.86852 -1.53518,-2 z m 5,-3.05902 c 0,-0.58246 0.45,-0.7809 1,-0.44098 0.55,0.33992 1,0.81648 1,1.05902 0,0.24254 -0.45,0.44098 -1,0.44098 -0.55,0 -1,-0.47656 -1,-1.05902 z m -5,-3.94098 c 0,-0.55 0.45,-1 1,-1 0.55,0 1,0.45 1,1 0,0.55 -0.45,1 -1,1 -0.55,0 -1,-0.45 -1,-1 z m -564,-9.12245 c 0,-1.77323 0.2468,-1.91762 1.5,-0.87755 0.825,0.68469 1.5,1.63979 1.5,2.12244 0,0.48266 -0.675,0.87756 -1.5,0.87756 -0.86218,0 -1.5,-0.90249 -1.5,-2.12245 z m 5.5,-4.29563 c -1.97693,-1.5008 -1.97405,-1.51868 0.25,-1.55012 1.61661,-0.0229 2.25,-0.62928 2.25,-2.15425 0,-1.77323 0.2468,-1.91762 1.5,-0.87755 1.89451,1.5723 1.9294,3 0.0733,3 -0.78467,0 -1.57217,0.69755 -1.75,1.55011 -0.28974,1.3891 -0.53108,1.3924 -2.32332,0.0318 z m 543.9427,-3.00016 c -1.06675,-0.78003 -1.63251,-1.72528 -1.25724,-2.10055 0.37527,-0.37527 1.69691,0.26294 2.93699,1.41824 2.53608,2.36272 1.30322,2.86351 -1.67975,0.68231 z m -536.00157,-5.04996 c -1.89257,-1.43146 -1.88484,-1.46899 0.30887,-1.5 1.34747,-0.019 2.25,0.56989 2.25,1.4682 0,1.85321 -0.14832,1.85505 -2.55887,0.0318 z m 524.05887,-2.5318 c -0.33992,-0.55 0.11008,-1 1,-1 0.88992,0 1.33992,0.45 1,1 -0.33992,0.55 -0.78992,1 -1,1 -0.21008,0 -0.66008,-0.45 -1,-1 z m -2.75,-4.66228 c 0.6875,-0.27741 1.25,-1.19699 1.25,-2.0435 0,-1.29624 0.25199,-1.32997 1.59695,-0.21376 1.45006,1.20344 1.42706,1.39221 -0.25,2.05216 -1.01582,0.39975 -2.29695,0.72291 -2.84695,0.71815 -0.55,-0.005 -0.4375,-0.23564 0.25,-0.51305 z m -502.75,-2.7399 c 0,-0.22119 1.40019,-0.89028 3.11154,-1.48686 2.71045,-0.94487 2.95248,-0.89302 1.87756,0.40217 -1.08426,1.30646 -4.9891,2.15542 -4.9891,1.08469 z m 1.8125,-5.28093 c 0.72187,-0.28888 1.58437,-0.25335 1.91667,0.079 0.33229,0.33229 -0.25834,0.56864 -1.3125,0.52522 -1.16495,-0.048 -1.4019,-0.28495 -0.60417,-0.60417 z m 13.3875,-3.51689 c -1.68038,-1.68038 -1.49378,-2.8 0.46667,-2.8 0.91666,0 1.37057,0.2961 1.00867,0.65799 -0.36189,0.3619 -0.15679,1.2619 0.45578,2 1.38165,1.66478 -0.28573,1.7874 -1.93112,0.14201 z m 9.6125,0.51689 c 0.72187,-0.28887 1.58437,-0.25335 1.91667,0.0789 0.33229,0.33229 -0.25834,0.56864 -1.3125,0.52522 -1.16495,-0.048 -1.4019,-0.28494 -0.60417,-0.60416 z m 435.1875,-0.31689 c 0,-0.55 0.4132,-1 0.91821,-1 0.50502,0 1.55502,-0.24436 2.33334,-0.54303 0.84337,-0.32364 1.41512,0.0804 1.41512,1 0,0.94984 -0.89701,1.54303 -2.33334,1.54303 -1.28333,0 -2.33333,-0.45 -2.33333,-1 z m -434.5,-5 c 0.33992,-0.55 0.81648,-1 1.05902,-1 0.24254,0 0.44098,0.45 0.44098,1 0,0.55 -0.47656,1 -1.05902,1 -0.58246,0 -0.7809,-0.45 -0.44098,-1 z m 437.21025,-2 c -0.28766,-1.1 -0.35597,-2 -0.15181,-2 0.20415,0 0.85286,0.9 1.44156,2 0.59134,1.10492 0.65928,2 0.15182,2 -0.50521,0 -1.15391,-0.9 -1.44157,-2 z m -434.89775,-0.68311 c 0.72187,-0.28887 1.58437,-0.25335 1.91667,0.0789 0.33229,0.33229 -0.25834,0.56864 -1.3125,0.52522 -1.16495,-0.048 -1.4019,-0.28494 -0.60417,-0.60416 z"
       id="path3213"
       inkscape:connector-curvature="0" />
  </g>
</svg>
